<svg width="178" height="149" viewBox="0 0 178 149" fill="none" xmlns="http://www.w3.org/2000/svg">
<circle cx="54" cy="75" r="15" fill="#10AE9D" fill-opacity="0.5"/>
<path d="M74 45C74 36.7157 80.7157 30 89 30V30C97.2843 30 104 36.7157 104 45V90H74V45Z" fill="#10AE9D" fill-opacity="0.75"/>
<rect x="109" width="30" height="90" fill="#10AE9D"/>
<path d="M14.5739 129H2.47692V96.2727H14.5579C17.8924 96.2727 20.7635 96.9279 23.1712 98.2383C25.5895 99.538 27.4538 101.413 28.7642 103.863C30.0746 106.303 30.7298 109.222 30.7298 112.62C30.7298 116.029 30.0746 118.959 28.7642 121.409C27.4645 123.86 25.6055 125.74 23.1871 127.05C20.7688 128.35 17.8977 129 14.5739 129ZM10.3871 122.256H14.2702C16.1026 122.256 17.6527 121.947 18.9205 121.33C20.1989 120.701 21.163 119.684 21.8129 118.277C22.4734 116.86 22.8036 114.975 22.8036 112.62C22.8036 110.266 22.4734 108.391 21.8129 106.995C21.1523 105.589 20.1776 104.577 18.8885 103.959C17.6101 103.331 16.0334 103.016 14.1584 103.016H10.3871V122.256ZM40.9436 129H32.4422L43.4844 96.2727H54.0153L65.0576 129H56.5562L48.8697 104.518H48.6141L40.9436 129ZM39.809 116.12H57.5789V122.129H39.809V116.12ZM63.8736 102.697V96.2727H91.5352V102.697H81.6116V129H73.8133V102.697H63.8736ZM98.8407 129H90.3393L101.382 96.2727H111.912L122.955 129H114.453L106.767 104.518H106.511L98.8407 129ZM97.7061 116.12H115.476V122.129H97.7061V116.12ZM137.046 129V96.2727H150.693C153.144 96.2727 155.194 96.619 156.846 97.3114C158.508 98.0039 159.754 98.9734 160.585 100.22C161.427 101.466 161.847 102.91 161.847 104.55C161.847 105.797 161.586 106.91 161.064 107.89C160.542 108.86 159.823 109.664 158.907 110.303C157.991 110.942 156.931 111.39 155.727 111.646V111.965C157.048 112.029 158.268 112.386 159.386 113.036C160.516 113.686 161.421 114.591 162.103 115.752C162.785 116.903 163.126 118.267 163.126 119.843C163.126 121.601 162.678 123.173 161.783 124.558C160.889 125.932 159.594 127.018 157.9 127.817C156.206 128.606 154.15 129 151.732 129H137.046ZM144.956 122.624H149.846C151.562 122.624 152.824 122.299 153.634 121.649C154.454 120.999 154.864 120.094 154.864 118.933C154.864 118.091 154.667 117.366 154.273 116.759C153.879 116.141 153.319 115.667 152.595 115.337C151.87 114.996 151.002 114.826 149.99 114.826H144.956V122.624ZM144.956 109.728H149.335C150.198 109.728 150.965 109.584 151.636 109.297C152.307 109.009 152.829 108.593 153.202 108.05C153.586 107.507 153.777 106.852 153.777 106.085C153.777 104.987 153.389 104.124 152.611 103.496C151.833 102.867 150.784 102.553 149.463 102.553H144.956V109.728ZM175.289 96.2727V129H167.379V96.2727H175.289Z" fill="#10AE9D"/>
<path d="M34.7784 137.5C34.6612 137.141 34.5067 136.82 34.315 136.536C34.1268 136.248 33.9013 136.003 33.6385 135.801C33.3793 135.598 33.0845 135.444 32.7543 135.337C32.424 135.231 32.0618 135.178 31.6676 135.178C31.0213 135.178 30.4336 135.344 29.9045 135.678C29.3754 136.012 28.9545 136.504 28.642 137.154C28.3295 137.804 28.1733 138.601 28.1733 139.545C28.1733 140.49 28.3313 141.287 28.6474 141.937C28.9634 142.587 29.3913 143.079 29.9311 143.413C30.4709 143.746 31.0781 143.913 31.7528 143.913C32.3778 143.913 32.9283 143.78 33.4041 143.514C33.8835 143.244 34.2564 142.864 34.5227 142.374C34.7926 141.88 34.9276 141.3 34.9276 140.632L35.3324 140.717H32.0511V139.545H36.206V140.717C36.206 141.616 36.0142 142.397 35.6307 143.061C35.2507 143.725 34.7251 144.24 34.054 144.606C33.3864 144.968 32.6193 145.149 31.7528 145.149C30.7869 145.149 29.9382 144.922 29.2067 144.467C28.4787 144.013 27.9105 143.366 27.5021 142.528C27.0973 141.69 26.8949 140.696 26.8949 139.545C26.8949 138.683 27.0103 137.907 27.2411 137.218C27.4755 136.525 27.8058 135.936 28.2319 135.449C28.658 134.963 29.1623 134.59 29.7447 134.331C30.3271 134.071 30.968 133.942 31.6676 133.942C32.2429 133.942 32.7791 134.029 33.2763 134.203C33.777 134.373 34.2227 134.616 34.6133 134.933C35.0075 135.245 35.3359 135.62 35.5987 136.056C35.8615 136.49 36.0426 136.971 36.142 137.5H34.7784ZM41.7284 145.17C40.9401 145.17 40.26 144.996 39.6883 144.648C39.1201 144.297 38.6816 143.807 38.3726 143.178C38.0672 142.546 37.9145 141.811 37.9145 140.973C37.9145 140.135 38.0672 139.396 38.3726 138.757C38.6816 138.114 39.1112 137.614 39.6617 137.255C40.2156 136.893 40.8619 136.712 41.6006 136.712C42.0267 136.712 42.4475 136.783 42.863 136.925C43.2785 137.067 43.6567 137.298 43.9976 137.617C44.3385 137.933 44.6102 138.352 44.8126 138.874C45.015 139.396 45.1162 140.039 45.1162 140.803V141.335H38.8094V140.249H43.8378C43.8378 139.787 43.7455 139.375 43.5608 139.013C43.3797 138.651 43.1205 138.365 42.7831 138.155C42.4493 137.946 42.0551 137.841 41.6006 137.841C41.0999 137.841 40.6666 137.965 40.3009 138.214C39.9387 138.459 39.6599 138.778 39.4646 139.173C39.2693 139.567 39.1716 139.989 39.1716 140.44V141.165C39.1716 141.783 39.2781 142.306 39.4912 142.736C39.7078 143.162 40.0079 143.487 40.3914 143.711C40.7749 143.931 41.2206 144.041 41.7284 144.041C42.0587 144.041 42.357 143.995 42.6233 143.903C42.8932 143.807 43.1258 143.665 43.3211 143.477C43.5164 143.285 43.6673 143.047 43.7739 142.763L44.9884 143.104C44.8605 143.516 44.6457 143.878 44.3438 144.19C44.042 144.499 43.6691 144.741 43.2252 144.915C42.7813 145.085 42.2824 145.17 41.7284 145.17ZM52.824 138.651L51.6947 138.97C51.6237 138.782 51.5189 138.599 51.3804 138.422C51.2455 138.24 51.0608 138.091 50.8264 137.974C50.5921 137.857 50.292 137.798 49.9262 137.798C49.4255 137.798 49.0083 137.914 48.6744 138.145C48.3442 138.372 48.1791 138.661 48.1791 139.013C48.1791 139.325 48.2927 139.572 48.52 139.753C48.7472 139.934 49.1024 140.085 49.5853 140.206L50.7998 140.504C51.5313 140.682 52.0764 140.953 52.4351 141.319C52.7938 141.681 52.9731 142.148 52.9731 142.72C52.9731 143.189 52.8382 143.608 52.5683 143.977C52.3019 144.347 51.9291 144.638 51.4497 144.851C50.9703 145.064 50.4127 145.17 49.7771 145.17C48.9426 145.17 48.2519 144.989 47.705 144.627C47.1581 144.265 46.8119 143.736 46.6663 143.04L47.8595 142.741C47.9731 143.182 48.1879 143.512 48.504 143.732C48.8236 143.952 49.2409 144.062 49.7558 144.062C50.3417 144.062 50.8069 143.938 51.1514 143.69C51.4994 143.437 51.6734 143.136 51.6734 142.784C51.6734 142.5 51.574 142.262 51.3751 142.07C51.1762 141.875 50.8708 141.729 50.4589 141.634L49.0953 141.314C48.346 141.136 47.7955 140.861 47.444 140.488C47.096 140.112 46.922 139.641 46.922 139.077C46.922 138.615 47.0516 138.207 47.3108 137.852C47.5736 137.496 47.9305 137.218 48.3815 137.015C48.836 136.813 49.3509 136.712 49.9262 136.712C50.7359 136.712 51.3715 136.889 51.8332 137.244C52.2984 137.599 52.6286 138.068 52.824 138.651ZM58.4237 136.818V137.884H54.1836V136.818H58.4237ZM55.4194 134.858H56.6765V142.656C56.6765 143.011 56.728 143.278 56.831 143.455C56.9375 143.629 57.0724 143.746 57.2358 143.807C57.4027 143.864 57.5785 143.892 57.7631 143.892C57.9016 143.892 58.0153 143.885 58.104 143.871C58.1928 143.853 58.2638 143.839 58.3171 143.828L58.5728 144.957C58.4876 144.989 58.3686 145.021 58.2159 145.053C58.0632 145.089 57.8697 145.107 57.6353 145.107C57.2802 145.107 56.9322 145.03 56.5913 144.877C56.2539 144.725 55.9734 144.492 55.7496 144.18C55.5295 143.867 55.4194 143.473 55.4194 142.997V134.858ZM62.7223 145.192C62.2038 145.192 61.7333 145.094 61.3107 144.899C60.8881 144.7 60.5526 144.414 60.304 144.041C60.0554 143.665 59.9311 143.21 59.9311 142.678C59.9311 142.209 60.0234 141.829 60.2081 141.538C60.3928 141.243 60.6396 141.012 60.9485 140.845C61.2575 140.678 61.5984 140.554 61.9712 140.472C62.3477 140.387 62.7259 140.32 63.1058 140.27C63.603 140.206 64.006 140.158 64.315 140.126C64.6275 140.091 64.8548 140.032 64.9968 139.95C65.1424 139.869 65.2152 139.727 65.2152 139.524V139.482C65.2152 138.956 65.0714 138.548 64.7837 138.256C64.4996 137.965 64.0682 137.82 63.4893 137.82C62.8892 137.82 62.4187 137.951 62.0778 138.214C61.7369 138.477 61.4972 138.757 61.3587 139.055L60.1655 138.629C60.3786 138.132 60.6626 137.745 61.0178 137.468C61.3764 137.187 61.767 136.992 62.1896 136.882C62.6158 136.768 63.0348 136.712 63.4467 136.712C63.7095 136.712 64.0114 136.744 64.3523 136.808C64.6967 136.868 65.0288 136.994 65.3484 137.186C65.6715 137.377 65.9396 137.667 66.1527 138.054C66.3658 138.441 66.4723 138.96 66.4723 139.609V145H65.2152V143.892H65.1513C65.0661 144.07 64.924 144.26 64.7251 144.462C64.5263 144.664 64.2617 144.837 63.9315 144.979C63.6012 145.121 63.1982 145.192 62.7223 145.192ZM62.9141 144.062C63.4112 144.062 63.8303 143.965 64.1712 143.77C64.5156 143.574 64.7749 143.322 64.9489 143.013C65.1264 142.704 65.2152 142.379 65.2152 142.038V140.888C65.1619 140.952 65.0447 141.01 64.8636 141.064C64.6861 141.113 64.4801 141.158 64.2457 141.197C64.0149 141.232 63.7894 141.264 63.5692 141.293C63.3526 141.317 63.1768 141.339 63.0419 141.357C62.7152 141.399 62.4098 141.468 62.1257 141.564C61.8452 141.657 61.6179 141.797 61.4439 141.985C61.2734 142.17 61.1882 142.422 61.1882 142.741C61.1882 143.178 61.3498 143.509 61.6729 143.732C61.9996 143.952 62.4134 144.062 62.9141 144.062ZM61.8913 135.838L60.9112 135.795C60.9112 135.252 61.0657 134.808 61.3746 134.464C61.6871 134.116 62.0724 133.942 62.5305 133.942C62.733 133.942 62.9123 133.977 63.0685 134.048C63.2248 134.116 63.3739 134.194 63.516 134.283C63.658 134.371 63.8036 134.451 63.9528 134.522C64.1055 134.59 64.2777 134.624 64.4695 134.624C64.6719 134.624 64.8423 134.545 64.9808 134.389C65.1229 134.229 65.1939 134.038 65.1939 133.814L66.1527 133.899C66.1527 134.453 65.9964 134.893 65.6839 135.22C65.375 135.547 64.9915 135.71 64.5334 135.71C64.2884 135.71 64.0859 135.676 63.9261 135.609C63.7663 135.538 63.6243 135.458 63.5 135.369C63.3757 135.281 63.2443 135.202 63.1058 135.135C62.9673 135.064 62.7969 135.028 62.5945 135.028C62.392 135.028 62.2234 135.108 62.0884 135.268C61.957 135.424 61.8913 135.614 61.8913 135.838ZM72.0906 145.17C71.352 145.17 70.7039 144.995 70.1464 144.643C69.5924 144.292 69.1592 143.8 68.8467 143.168C68.5377 142.536 68.3833 141.797 68.3833 140.952C68.3833 140.099 68.5377 139.355 68.8467 138.72C69.1592 138.084 69.5924 137.591 70.1464 137.239C70.7039 136.887 71.352 136.712 72.0906 136.712C72.8293 136.712 73.4756 136.887 74.0296 137.239C74.5871 137.591 75.0203 138.084 75.3293 138.72C75.6418 139.355 75.798 140.099 75.798 140.952C75.798 141.797 75.6418 142.536 75.3293 143.168C75.0203 143.8 74.5871 144.292 74.0296 144.643C73.4756 144.995 72.8293 145.17 72.0906 145.17ZM72.0906 144.041C72.6517 144.041 73.1134 143.897 73.4756 143.61C73.8378 143.322 74.1059 142.944 74.2799 142.475C74.4539 142.006 74.5409 141.499 74.5409 140.952C74.5409 140.405 74.4539 139.895 74.2799 139.423C74.1059 138.951 73.8378 138.569 73.4756 138.278C73.1134 137.987 72.6517 137.841 72.0906 137.841C71.5296 137.841 71.0679 137.987 70.7057 138.278C70.3435 138.569 70.0754 138.951 69.9014 139.423C69.7274 139.895 69.6404 140.405 69.6404 140.952C69.6404 141.499 69.7274 142.006 69.9014 142.475C70.0754 142.944 70.3435 143.322 70.7057 143.61C71.0679 143.897 71.5296 144.041 72.0906 144.041ZM83.4272 134.091V145H82.1062V134.091H83.4272ZM87.1626 140.078V145H85.9055V136.818H87.1199V138.097H87.2265C87.4182 137.681 87.7094 137.347 88.1001 137.095C88.4907 136.839 88.9949 136.712 89.6128 136.712C90.1668 136.712 90.6515 136.825 91.067 137.053C91.4825 137.276 91.8057 137.617 92.0365 138.075C92.2673 138.53 92.3827 139.105 92.3827 139.801V145H91.1256V139.886C91.1256 139.244 90.9587 138.743 90.6249 138.384C90.2911 138.022 89.833 137.841 89.2506 137.841C88.8493 137.841 88.4907 137.928 88.1746 138.102C87.8621 138.276 87.6153 138.53 87.4342 138.864C87.2531 139.197 87.1626 139.602 87.1626 140.078ZM98.2381 136.818V137.884H93.998V136.818H98.2381ZM95.2338 134.858H96.4909V142.656C96.4909 143.011 96.5424 143.278 96.6454 143.455C96.752 143.629 96.8869 143.746 97.0502 143.807C97.2172 143.864 97.3929 143.892 97.5776 143.892C97.7161 143.892 97.8297 143.885 97.9185 143.871C98.0073 143.853 98.0783 143.839 98.1316 143.828L98.3873 144.957C98.302 144.989 98.1831 145.021 98.0304 145.053C97.8777 145.089 97.6841 145.107 97.4498 145.107C97.0946 145.107 96.7466 145.03 96.4057 144.877C96.0684 144.725 95.7878 144.492 95.5641 144.18C95.3439 143.867 95.2338 143.473 95.2338 142.997V134.858ZM103.472 145.17C102.683 145.17 102.003 144.996 101.431 144.648C100.863 144.297 100.425 143.807 100.116 143.178C99.8104 142.546 99.6577 141.811 99.6577 140.973C99.6577 140.135 99.8104 139.396 100.116 138.757C100.425 138.114 100.854 137.614 101.405 137.255C101.959 136.893 102.605 136.712 103.344 136.712C103.77 136.712 104.191 136.783 104.606 136.925C105.022 137.067 105.4 137.298 105.741 137.617C106.082 137.933 106.353 138.352 106.556 138.874C106.758 139.396 106.859 140.039 106.859 140.803V141.335H100.553V140.249H105.581C105.581 139.787 105.489 139.375 105.304 139.013C105.123 138.651 104.864 138.365 104.526 138.155C104.192 137.946 103.798 137.841 103.344 137.841C102.843 137.841 102.41 137.965 102.044 138.214C101.682 138.459 101.403 138.778 101.208 139.173C101.012 139.567 100.915 139.989 100.915 140.44V141.165C100.915 141.783 101.021 142.306 101.234 142.736C101.451 143.162 101.751 143.487 102.135 143.711C102.518 143.931 102.964 144.041 103.472 144.041C103.802 144.041 104.1 143.995 104.366 143.903C104.636 143.807 104.869 143.665 105.064 143.477C105.26 143.285 105.411 143.047 105.517 142.763L106.732 143.104C106.604 143.516 106.389 143.878 106.087 144.19C105.785 144.499 105.412 144.741 104.968 144.915C104.525 145.085 104.026 145.17 103.472 145.17ZM110.029 134.091V145H108.772V134.091H110.029ZM112.331 145V136.818H113.588V145H112.331ZM112.97 135.455C112.725 135.455 112.514 135.371 112.337 135.204C112.163 135.037 112.076 134.837 112.076 134.602C112.076 134.368 112.163 134.167 112.337 134C112.514 133.833 112.725 133.75 112.97 133.75C113.215 133.75 113.425 133.833 113.599 134C113.777 134.167 113.865 134.368 113.865 134.602C113.865 134.837 113.777 135.037 113.599 135.204C113.425 135.371 113.215 135.455 112.97 135.455ZM119.193 148.239C118.586 148.239 118.064 148.161 117.627 148.004C117.191 147.852 116.827 147.649 116.535 147.397C116.248 147.148 116.019 146.882 115.848 146.598L116.85 145.895C116.963 146.044 117.107 146.214 117.281 146.406C117.455 146.602 117.693 146.77 117.995 146.912C118.3 147.058 118.7 147.131 119.193 147.131C119.854 147.131 120.399 146.971 120.829 146.651C121.258 146.332 121.473 145.831 121.473 145.149V143.487H121.367C121.274 143.636 121.143 143.821 120.972 144.041C120.806 144.258 120.564 144.451 120.248 144.622C119.936 144.789 119.513 144.872 118.98 144.872C118.32 144.872 117.727 144.716 117.201 144.403C116.679 144.091 116.265 143.636 115.96 143.04C115.658 142.443 115.507 141.719 115.507 140.866C115.507 140.028 115.655 139.299 115.949 138.677C116.244 138.052 116.654 137.569 117.18 137.228C117.705 136.884 118.313 136.712 119.002 136.712C119.534 136.712 119.957 136.8 120.269 136.978C120.585 137.152 120.827 137.351 120.994 137.575C121.164 137.795 121.296 137.976 121.388 138.118H121.516V136.818H122.73V145.234C122.73 145.938 122.57 146.509 122.251 146.95C121.935 147.393 121.509 147.718 120.972 147.924C120.44 148.134 119.847 148.239 119.193 148.239ZM119.151 143.743C119.655 143.743 120.081 143.627 120.429 143.397C120.777 143.166 121.042 142.834 121.223 142.401C121.404 141.967 121.494 141.449 121.494 140.845C121.494 140.256 121.406 139.735 121.228 139.284C121.051 138.833 120.788 138.48 120.44 138.224C120.092 137.969 119.662 137.841 119.151 137.841C118.618 137.841 118.174 137.976 117.819 138.246C117.468 138.516 117.203 138.878 117.025 139.332C116.851 139.787 116.764 140.291 116.764 140.845C116.764 141.413 116.853 141.916 117.031 142.353C117.212 142.786 117.478 143.127 117.83 143.375C118.185 143.62 118.625 143.743 119.151 143.743ZM128.462 145.17C127.673 145.17 126.993 144.996 126.422 144.648C125.854 144.297 125.415 143.807 125.106 143.178C124.801 142.546 124.648 141.811 124.648 140.973C124.648 140.135 124.801 139.396 125.106 138.757C125.415 138.114 125.845 137.614 126.395 137.255C126.949 136.893 127.595 136.712 128.334 136.712C128.76 136.712 129.181 136.783 129.596 136.925C130.012 137.067 130.39 137.298 130.731 137.617C131.072 137.933 131.344 138.352 131.546 138.874C131.748 139.396 131.85 140.039 131.85 140.803V141.335H125.543V140.249H130.571C130.571 139.787 130.479 139.375 130.294 139.013C130.113 138.651 129.854 138.365 129.517 138.155C129.183 137.946 128.789 137.841 128.334 137.841C127.833 137.841 127.4 137.965 127.034 138.214C126.672 138.459 126.393 138.778 126.198 139.173C126.003 139.567 125.905 139.989 125.905 140.44V141.165C125.905 141.783 126.012 142.306 126.225 142.736C126.441 143.162 126.741 143.487 127.125 143.711C127.508 143.931 127.954 144.041 128.462 144.041C128.792 144.041 129.09 143.995 129.357 143.903C129.627 143.807 129.859 143.665 130.055 143.477C130.25 143.285 130.401 143.047 130.507 142.763L131.722 143.104C131.594 143.516 131.379 143.878 131.077 144.19C130.775 144.499 130.403 144.741 129.959 144.915C129.515 145.085 129.016 145.17 128.462 145.17ZM135.019 140.078V145H133.762V136.818H134.976V138.097H135.083C135.275 137.681 135.566 137.347 135.956 137.095C136.347 136.839 136.851 136.712 137.469 136.712C138.023 136.712 138.508 136.825 138.923 137.053C139.339 137.276 139.662 137.617 139.893 138.075C140.124 138.53 140.239 139.105 140.239 139.801V145H138.982V139.886C138.982 139.244 138.815 138.743 138.481 138.384C138.148 138.022 137.689 137.841 137.107 137.841C136.706 137.841 136.347 137.928 136.031 138.102C135.719 138.276 135.472 138.53 135.291 138.864C135.11 139.197 135.019 139.602 135.019 140.078ZM146.095 136.818V137.884H141.854V136.818H146.095ZM143.09 134.858H144.347V142.656C144.347 143.011 144.399 143.278 144.502 143.455C144.608 143.629 144.743 143.746 144.907 143.807C145.074 143.864 145.249 143.892 145.434 143.892C145.573 143.892 145.686 143.885 145.775 143.871C145.864 143.853 145.935 143.839 145.988 143.828L146.244 144.957C146.158 144.989 146.04 145.021 145.887 145.053C145.734 145.089 145.541 145.107 145.306 145.107C144.951 145.107 144.603 145.03 144.262 144.877C143.925 144.725 143.644 144.492 143.421 144.18C143.2 143.867 143.09 143.473 143.09 142.997V134.858ZM151.328 145.17C150.54 145.17 149.86 144.996 149.288 144.648C148.72 144.297 148.281 143.807 147.972 143.178C147.667 142.546 147.514 141.811 147.514 140.973C147.514 140.135 147.667 139.396 147.972 138.757C148.281 138.114 148.711 137.614 149.261 137.255C149.815 136.893 150.462 136.712 151.2 136.712C151.626 136.712 152.047 136.783 152.463 136.925C152.878 137.067 153.256 137.298 153.597 137.617C153.938 137.933 154.21 138.352 154.412 138.874C154.615 139.396 154.716 140.039 154.716 140.803V141.335H148.409V140.249H153.437C153.437 139.787 153.345 139.375 153.16 139.013C152.979 138.651 152.72 138.365 152.383 138.155C152.049 137.946 151.655 137.841 151.2 137.841C150.699 137.841 150.266 137.965 149.9 138.214C149.538 138.459 149.259 138.778 149.064 139.173C148.869 139.567 148.771 139.989 148.771 140.44V141.165C148.771 141.783 148.878 142.306 149.091 142.736C149.307 143.162 149.608 143.487 149.991 143.711C150.375 143.931 150.82 144.041 151.328 144.041C151.658 144.041 151.957 143.995 152.223 143.903C152.493 143.807 152.725 143.665 152.921 143.477C153.116 143.285 153.267 143.047 153.373 142.763L154.588 143.104C154.46 143.516 154.245 143.878 153.943 144.19C153.642 144.499 153.269 144.741 152.825 144.915C152.381 145.085 151.882 145.17 151.328 145.17Z" fill="#2F5062"/>
</svg>
