<svg width="178" height="150" viewBox="0 0 178 150" fill="none" xmlns="http://www.w3.org/2000/svg">
<circle cx="54" cy="75" r="15" fill="#2F5062" fill-opacity="0.5"/>
<path d="M74 45C74 36.7157 80.7157 30 89 30V30C97.2843 30 104 36.7157 104 45V90H74V45Z" fill="#2F5062" fill-opacity="0.75"/>
<rect x="109" width="30" height="90" fill="#2F5062"/>
<path d="M14.5739 129H2.47692V96.2727H14.5579C17.8924 96.2727 20.7635 96.9279 23.1712 98.2383C25.5895 99.538 27.4538 101.413 28.7642 103.863C30.0746 106.303 30.7298 109.222 30.7298 112.62C30.7298 116.029 30.0746 118.959 28.7642 121.409C27.4645 123.86 25.6055 125.74 23.1871 127.05C20.7688 128.35 17.8977 129 14.5739 129ZM10.3871 122.256H14.2702C16.1026 122.256 17.6527 121.947 18.9205 121.33C20.1989 120.701 21.163 119.684 21.8129 118.277C22.4734 116.86 22.8036 114.975 22.8036 112.62C22.8036 110.266 22.4734 108.391 21.8129 106.995C21.1523 105.589 20.1776 104.577 18.8885 103.959C17.6101 103.331 16.0334 103.016 14.1584 103.016H10.3871V122.256ZM40.9436 129H32.4422L43.4844 96.2727H54.0153L65.0576 129H56.5562L48.8697 104.518H48.6141L40.9436 129ZM39.809 116.12H57.5789V122.129H39.809V116.12ZM63.8736 102.697V96.2727H91.5352V102.697H81.6116V129H73.8133V102.697H63.8736ZM98.8407 129H90.3393L101.382 96.2727H111.912L122.955 129H114.453L106.767 104.518H106.511L98.8407 129ZM97.7061 116.12H115.476V122.129H97.7061V116.12ZM137.046 129V96.2727H150.693C153.144 96.2727 155.194 96.619 156.846 97.3114C158.508 98.0039 159.754 98.9734 160.585 100.22C161.427 101.466 161.847 102.91 161.847 104.55C161.847 105.797 161.586 106.91 161.064 107.89C160.542 108.86 159.823 109.664 158.907 110.303C157.991 110.942 156.931 111.39 155.727 111.646V111.965C157.048 112.029 158.268 112.386 159.386 113.036C160.516 113.686 161.421 114.591 162.103 115.752C162.785 116.903 163.126 118.267 163.126 119.843C163.126 121.601 162.678 123.173 161.783 124.558C160.889 125.932 159.594 127.018 157.9 127.817C156.206 128.606 154.15 129 151.732 129H137.046ZM144.956 122.624H149.846C151.562 122.624 152.824 122.299 153.634 121.649C154.454 120.999 154.864 120.094 154.864 118.933C154.864 118.091 154.667 117.366 154.273 116.759C153.879 116.141 153.319 115.667 152.595 115.337C151.87 114.996 151.002 114.826 149.99 114.826H144.956V122.624ZM144.956 109.728H149.335C150.198 109.728 150.965 109.584 151.636 109.297C152.307 109.009 152.829 108.593 153.202 108.05C153.586 107.507 153.777 106.852 153.777 106.085C153.777 104.987 153.389 104.124 152.611 103.496C151.833 102.867 150.784 102.553 149.463 102.553H144.956V109.728ZM175.289 96.2727V129H167.379V96.2727H175.289Z" fill="#2F5062"/>
<path d="M34.7784 138.5C34.6612 138.141 34.5067 137.82 34.315 137.536C34.1268 137.248 33.9013 137.003 33.6385 136.801C33.3793 136.598 33.0845 136.444 32.7543 136.337C32.424 136.231 32.0618 136.178 31.6676 136.178C31.0213 136.178 30.4336 136.344 29.9045 136.678C29.3754 137.012 28.9545 137.504 28.642 138.154C28.3295 138.804 28.1733 139.601 28.1733 140.545C28.1733 141.49 28.3313 142.287 28.6474 142.937C28.9634 143.587 29.3913 144.079 29.9311 144.413C30.4709 144.746 31.0781 144.913 31.7528 144.913C32.3778 144.913 32.9283 144.78 33.4041 144.514C33.8835 144.244 34.2564 143.864 34.5227 143.374C34.7926 142.88 34.9276 142.3 34.9276 141.632L35.3324 141.717H32.0511V140.545H36.206V141.717C36.206 142.616 36.0142 143.397 35.6307 144.061C35.2507 144.725 34.7251 145.24 34.054 145.606C33.3864 145.968 32.6193 146.149 31.7528 146.149C30.7869 146.149 29.9382 145.922 29.2067 145.467C28.4787 145.013 27.9105 144.366 27.5021 143.528C27.0973 142.69 26.8949 141.696 26.8949 140.545C26.8949 139.683 27.0103 138.907 27.2411 138.218C27.4755 137.525 27.8058 136.936 28.2319 136.449C28.658 135.963 29.1623 135.59 29.7447 135.331C30.3271 135.071 30.968 134.942 31.6676 134.942C32.2429 134.942 32.7791 135.029 33.2763 135.203C33.777 135.373 34.2227 135.616 34.6133 135.933C35.0075 136.245 35.3359 136.62 35.5987 137.056C35.8615 137.49 36.0426 137.971 36.142 138.5H34.7784ZM41.7284 146.17C40.9401 146.17 40.26 145.996 39.6883 145.648C39.1201 145.297 38.6816 144.807 38.3726 144.178C38.0672 143.546 37.9145 142.811 37.9145 141.973C37.9145 141.135 38.0672 140.396 38.3726 139.757C38.6816 139.114 39.1112 138.614 39.6617 138.255C40.2156 137.893 40.8619 137.712 41.6006 137.712C42.0267 137.712 42.4475 137.783 42.863 137.925C43.2785 138.067 43.6567 138.298 43.9976 138.617C44.3385 138.933 44.6102 139.352 44.8126 139.874C45.015 140.396 45.1162 141.039 45.1162 141.803V142.335H38.8094V141.249H43.8378C43.8378 140.787 43.7455 140.375 43.5608 140.013C43.3797 139.651 43.1205 139.365 42.7831 139.155C42.4493 138.946 42.0551 138.841 41.6006 138.841C41.0999 138.841 40.6666 138.965 40.3009 139.214C39.9387 139.459 39.6599 139.778 39.4646 140.173C39.2693 140.567 39.1716 140.989 39.1716 141.44V142.165C39.1716 142.783 39.2781 143.306 39.4912 143.736C39.7078 144.162 40.0079 144.487 40.3914 144.711C40.7749 144.931 41.2206 145.041 41.7284 145.041C42.0587 145.041 42.357 144.995 42.6233 144.903C42.8932 144.807 43.1258 144.665 43.3211 144.477C43.5164 144.285 43.6673 144.047 43.7739 143.763L44.9884 144.104C44.8605 144.516 44.6457 144.878 44.3438 145.19C44.042 145.499 43.6691 145.741 43.2252 145.915C42.7813 146.085 42.2824 146.17 41.7284 146.17ZM52.824 139.651L51.6947 139.97C51.6237 139.782 51.5189 139.599 51.3804 139.422C51.2455 139.24 51.0608 139.091 50.8264 138.974C50.5921 138.857 50.292 138.798 49.9262 138.798C49.4255 138.798 49.0083 138.914 48.6744 139.145C48.3442 139.372 48.1791 139.661 48.1791 140.013C48.1791 140.325 48.2927 140.572 48.52 140.753C48.7472 140.934 49.1024 141.085 49.5853 141.206L50.7998 141.504C51.5313 141.682 52.0764 141.953 52.4351 142.319C52.7938 142.681 52.9731 143.148 52.9731 143.72C52.9731 144.189 52.8382 144.608 52.5683 144.977C52.3019 145.347 51.9291 145.638 51.4497 145.851C50.9703 146.064 50.4127 146.17 49.7771 146.17C48.9426 146.17 48.2519 145.989 47.705 145.627C47.1581 145.265 46.8119 144.736 46.6663 144.04L47.8595 143.741C47.9731 144.182 48.1879 144.512 48.504 144.732C48.8236 144.952 49.2409 145.062 49.7558 145.062C50.3417 145.062 50.8069 144.938 51.1514 144.69C51.4994 144.437 51.6734 144.136 51.6734 143.784C51.6734 143.5 51.574 143.262 51.3751 143.07C51.1762 142.875 50.8708 142.729 50.4589 142.634L49.0953 142.314C48.346 142.136 47.7955 141.861 47.444 141.488C47.096 141.112 46.922 140.641 46.922 140.077C46.922 139.615 47.0516 139.207 47.3108 138.852C47.5736 138.496 47.9305 138.218 48.3815 138.015C48.836 137.813 49.3509 137.712 49.9262 137.712C50.7359 137.712 51.3715 137.889 51.8332 138.244C52.2984 138.599 52.6286 139.068 52.824 139.651ZM58.4237 137.818V138.884H54.1836V137.818H58.4237ZM55.4194 135.858H56.6765V143.656C56.6765 144.011 56.728 144.278 56.831 144.455C56.9375 144.629 57.0724 144.746 57.2358 144.807C57.4027 144.864 57.5785 144.892 57.7631 144.892C57.9016 144.892 58.0153 144.885 58.104 144.871C58.1928 144.853 58.2638 144.839 58.3171 144.828L58.5728 145.957C58.4876 145.989 58.3686 146.021 58.2159 146.053C58.0632 146.089 57.8697 146.107 57.6353 146.107C57.2802 146.107 56.9322 146.03 56.5913 145.877C56.2539 145.725 55.9734 145.492 55.7496 145.18C55.5295 144.867 55.4194 144.473 55.4194 143.997V135.858ZM62.7223 146.192C62.2038 146.192 61.7333 146.094 61.3107 145.899C60.8881 145.7 60.5526 145.414 60.304 145.041C60.0554 144.665 59.9311 144.21 59.9311 143.678C59.9311 143.209 60.0234 142.829 60.2081 142.538C60.3928 142.243 60.6396 142.012 60.9485 141.845C61.2575 141.678 61.5984 141.554 61.9712 141.472C62.3477 141.387 62.7259 141.32 63.1058 141.27C63.603 141.206 64.006 141.158 64.315 141.126C64.6275 141.091 64.8548 141.032 64.9968 140.95C65.1424 140.869 65.2152 140.727 65.2152 140.524V140.482C65.2152 139.956 65.0714 139.548 64.7837 139.256C64.4996 138.965 64.0682 138.82 63.4893 138.82C62.8892 138.82 62.4187 138.951 62.0778 139.214C61.7369 139.477 61.4972 139.757 61.3587 140.055L60.1655 139.629C60.3786 139.132 60.6626 138.745 61.0178 138.468C61.3764 138.187 61.767 137.992 62.1896 137.882C62.6158 137.768 63.0348 137.712 63.4467 137.712C63.7095 137.712 64.0114 137.744 64.3523 137.808C64.6967 137.868 65.0288 137.994 65.3484 138.186C65.6715 138.377 65.9396 138.667 66.1527 139.054C66.3658 139.441 66.4723 139.96 66.4723 140.609V146H65.2152V144.892H65.1513C65.0661 145.07 64.924 145.26 64.7251 145.462C64.5263 145.664 64.2617 145.837 63.9315 145.979C63.6012 146.121 63.1982 146.192 62.7223 146.192ZM62.9141 145.062C63.4112 145.062 63.8303 144.965 64.1712 144.77C64.5156 144.574 64.7749 144.322 64.9489 144.013C65.1264 143.704 65.2152 143.379 65.2152 143.038V141.888C65.1619 141.952 65.0447 142.01 64.8636 142.064C64.6861 142.113 64.4801 142.158 64.2457 142.197C64.0149 142.232 63.7894 142.264 63.5692 142.293C63.3526 142.317 63.1768 142.339 63.0419 142.357C62.7152 142.399 62.4098 142.468 62.1257 142.564C61.8452 142.657 61.6179 142.797 61.4439 142.985C61.2734 143.17 61.1882 143.422 61.1882 143.741C61.1882 144.178 61.3498 144.509 61.6729 144.732C61.9996 144.952 62.4134 145.062 62.9141 145.062ZM61.8913 136.838L60.9112 136.795C60.9112 136.252 61.0657 135.808 61.3746 135.464C61.6871 135.116 62.0724 134.942 62.5305 134.942C62.733 134.942 62.9123 134.977 63.0685 135.048C63.2248 135.116 63.3739 135.194 63.516 135.283C63.658 135.371 63.8036 135.451 63.9528 135.522C64.1055 135.59 64.2777 135.624 64.4695 135.624C64.6719 135.624 64.8423 135.545 64.9808 135.389C65.1229 135.229 65.1939 135.038 65.1939 134.814L66.1527 134.899C66.1527 135.453 65.9964 135.893 65.6839 136.22C65.375 136.547 64.9915 136.71 64.5334 136.71C64.2884 136.71 64.0859 136.676 63.9261 136.609C63.7663 136.538 63.6243 136.458 63.5 136.369C63.3757 136.281 63.2443 136.202 63.1058 136.135C62.9673 136.064 62.7969 136.028 62.5945 136.028C62.392 136.028 62.2234 136.108 62.0884 136.268C61.957 136.424 61.8913 136.614 61.8913 136.838ZM72.0906 146.17C71.352 146.17 70.7039 145.995 70.1464 145.643C69.5924 145.292 69.1592 144.8 68.8467 144.168C68.5377 143.536 68.3833 142.797 68.3833 141.952C68.3833 141.099 68.5377 140.355 68.8467 139.72C69.1592 139.084 69.5924 138.591 70.1464 138.239C70.7039 137.887 71.352 137.712 72.0906 137.712C72.8293 137.712 73.4756 137.887 74.0296 138.239C74.5871 138.591 75.0203 139.084 75.3293 139.72C75.6418 140.355 75.798 141.099 75.798 141.952C75.798 142.797 75.6418 143.536 75.3293 144.168C75.0203 144.8 74.5871 145.292 74.0296 145.643C73.4756 145.995 72.8293 146.17 72.0906 146.17ZM72.0906 145.041C72.6517 145.041 73.1134 144.897 73.4756 144.61C73.8378 144.322 74.1059 143.944 74.2799 143.475C74.4539 143.006 74.5409 142.499 74.5409 141.952C74.5409 141.405 74.4539 140.895 74.2799 140.423C74.1059 139.951 73.8378 139.569 73.4756 139.278C73.1134 138.987 72.6517 138.841 72.0906 138.841C71.5296 138.841 71.0679 138.987 70.7057 139.278C70.3435 139.569 70.0754 139.951 69.9014 140.423C69.7274 140.895 69.6404 141.405 69.6404 141.952C69.6404 142.499 69.7274 143.006 69.9014 143.475C70.0754 143.944 70.3435 144.322 70.7057 144.61C71.0679 144.897 71.5296 145.041 72.0906 145.041ZM83.4272 135.091V146H82.1062V135.091H83.4272ZM87.1626 141.078V146H85.9055V137.818H87.1199V139.097H87.2265C87.4182 138.681 87.7094 138.347 88.1001 138.095C88.4907 137.839 88.9949 137.712 89.6128 137.712C90.1668 137.712 90.6515 137.825 91.067 138.053C91.4825 138.276 91.8057 138.617 92.0365 139.075C92.2673 139.53 92.3827 140.105 92.3827 140.801V146H91.1256V140.886C91.1256 140.244 90.9587 139.743 90.6249 139.384C90.2911 139.022 89.833 138.841 89.2506 138.841C88.8493 138.841 88.4907 138.928 88.1746 139.102C87.8621 139.276 87.6153 139.53 87.4342 139.864C87.2531 140.197 87.1626 140.602 87.1626 141.078ZM98.2381 137.818V138.884H93.998V137.818H98.2381ZM95.2338 135.858H96.4909V143.656C96.4909 144.011 96.5424 144.278 96.6454 144.455C96.752 144.629 96.8869 144.746 97.0502 144.807C97.2172 144.864 97.3929 144.892 97.5776 144.892C97.7161 144.892 97.8297 144.885 97.9185 144.871C98.0073 144.853 98.0783 144.839 98.1316 144.828L98.3873 145.957C98.302 145.989 98.1831 146.021 98.0304 146.053C97.8777 146.089 97.6841 146.107 97.4498 146.107C97.0946 146.107 96.7466 146.03 96.4057 145.877C96.0684 145.725 95.7878 145.492 95.5641 145.18C95.3439 144.867 95.2338 144.473 95.2338 143.997V135.858ZM103.472 146.17C102.683 146.17 102.003 145.996 101.431 145.648C100.863 145.297 100.425 144.807 100.116 144.178C99.8104 143.546 99.6577 142.811 99.6577 141.973C99.6577 141.135 99.8104 140.396 100.116 139.757C100.425 139.114 100.854 138.614 101.405 138.255C101.959 137.893 102.605 137.712 103.344 137.712C103.77 137.712 104.191 137.783 104.606 137.925C105.022 138.067 105.4 138.298 105.741 138.617C106.082 138.933 106.353 139.352 106.556 139.874C106.758 140.396 106.859 141.039 106.859 141.803V142.335H100.553V141.249H105.581C105.581 140.787 105.489 140.375 105.304 140.013C105.123 139.651 104.864 139.365 104.526 139.155C104.192 138.946 103.798 138.841 103.344 138.841C102.843 138.841 102.41 138.965 102.044 139.214C101.682 139.459 101.403 139.778 101.208 140.173C101.012 140.567 100.915 140.989 100.915 141.44V142.165C100.915 142.783 101.021 143.306 101.234 143.736C101.451 144.162 101.751 144.487 102.135 144.711C102.518 144.931 102.964 145.041 103.472 145.041C103.802 145.041 104.1 144.995 104.366 144.903C104.636 144.807 104.869 144.665 105.064 144.477C105.26 144.285 105.411 144.047 105.517 143.763L106.732 144.104C106.604 144.516 106.389 144.878 106.087 145.19C105.785 145.499 105.412 145.741 104.968 145.915C104.525 146.085 104.026 146.17 103.472 146.17ZM110.029 135.091V146H108.772V135.091H110.029ZM112.331 146V137.818H113.588V146H112.331ZM112.97 136.455C112.725 136.455 112.514 136.371 112.337 136.204C112.163 136.037 112.076 135.837 112.076 135.602C112.076 135.368 112.163 135.167 112.337 135C112.514 134.833 112.725 134.75 112.97 134.75C113.215 134.75 113.425 134.833 113.599 135C113.777 135.167 113.865 135.368 113.865 135.602C113.865 135.837 113.777 136.037 113.599 136.204C113.425 136.371 113.215 136.455 112.97 136.455ZM119.193 149.239C118.586 149.239 118.064 149.161 117.627 149.004C117.191 148.852 116.827 148.649 116.535 148.397C116.248 148.148 116.019 147.882 115.848 147.598L116.85 146.895C116.963 147.044 117.107 147.214 117.281 147.406C117.455 147.602 117.693 147.77 117.995 147.912C118.3 148.058 118.7 148.131 119.193 148.131C119.854 148.131 120.399 147.971 120.829 147.651C121.258 147.332 121.473 146.831 121.473 146.149V144.487H121.367C121.274 144.636 121.143 144.821 120.972 145.041C120.806 145.258 120.564 145.451 120.248 145.622C119.936 145.789 119.513 145.872 118.98 145.872C118.32 145.872 117.727 145.716 117.201 145.403C116.679 145.091 116.265 144.636 115.96 144.04C115.658 143.443 115.507 142.719 115.507 141.866C115.507 141.028 115.655 140.299 115.949 139.677C116.244 139.052 116.654 138.569 117.18 138.228C117.705 137.884 118.313 137.712 119.002 137.712C119.534 137.712 119.957 137.8 120.269 137.978C120.585 138.152 120.827 138.351 120.994 138.575C121.164 138.795 121.296 138.976 121.388 139.118H121.516V137.818H122.73V146.234C122.73 146.938 122.57 147.509 122.251 147.95C121.935 148.393 121.509 148.718 120.972 148.924C120.44 149.134 119.847 149.239 119.193 149.239ZM119.151 144.743C119.655 144.743 120.081 144.627 120.429 144.397C120.777 144.166 121.042 143.834 121.223 143.401C121.404 142.967 121.494 142.449 121.494 141.845C121.494 141.256 121.406 140.735 121.228 140.284C121.051 139.833 120.788 139.48 120.44 139.224C120.092 138.969 119.662 138.841 119.151 138.841C118.618 138.841 118.174 138.976 117.819 139.246C117.468 139.516 117.203 139.878 117.025 140.332C116.851 140.787 116.764 141.291 116.764 141.845C116.764 142.413 116.853 142.916 117.031 143.353C117.212 143.786 117.478 144.127 117.83 144.375C118.185 144.62 118.625 144.743 119.151 144.743ZM128.462 146.17C127.673 146.17 126.993 145.996 126.422 145.648C125.854 145.297 125.415 144.807 125.106 144.178C124.801 143.546 124.648 142.811 124.648 141.973C124.648 141.135 124.801 140.396 125.106 139.757C125.415 139.114 125.845 138.614 126.395 138.255C126.949 137.893 127.595 137.712 128.334 137.712C128.76 137.712 129.181 137.783 129.596 137.925C130.012 138.067 130.39 138.298 130.731 138.617C131.072 138.933 131.344 139.352 131.546 139.874C131.748 140.396 131.85 141.039 131.85 141.803V142.335H125.543V141.249H130.571C130.571 140.787 130.479 140.375 130.294 140.013C130.113 139.651 129.854 139.365 129.517 139.155C129.183 138.946 128.789 138.841 128.334 138.841C127.833 138.841 127.4 138.965 127.034 139.214C126.672 139.459 126.393 139.778 126.198 140.173C126.003 140.567 125.905 140.989 125.905 141.44V142.165C125.905 142.783 126.012 143.306 126.225 143.736C126.441 144.162 126.741 144.487 127.125 144.711C127.508 144.931 127.954 145.041 128.462 145.041C128.792 145.041 129.09 144.995 129.357 144.903C129.627 144.807 129.859 144.665 130.055 144.477C130.25 144.285 130.401 144.047 130.507 143.763L131.722 144.104C131.594 144.516 131.379 144.878 131.077 145.19C130.775 145.499 130.403 145.741 129.959 145.915C129.515 146.085 129.016 146.17 128.462 146.17ZM135.019 141.078V146H133.762V137.818H134.976V139.097H135.083C135.275 138.681 135.566 138.347 135.956 138.095C136.347 137.839 136.851 137.712 137.469 137.712C138.023 137.712 138.508 137.825 138.923 138.053C139.339 138.276 139.662 138.617 139.893 139.075C140.124 139.53 140.239 140.105 140.239 140.801V146H138.982V140.886C138.982 140.244 138.815 139.743 138.481 139.384C138.148 139.022 137.689 138.841 137.107 138.841C136.706 138.841 136.347 138.928 136.031 139.102C135.719 139.276 135.472 139.53 135.291 139.864C135.11 140.197 135.019 140.602 135.019 141.078ZM146.095 137.818V138.884H141.854V137.818H146.095ZM143.09 135.858H144.347V143.656C144.347 144.011 144.399 144.278 144.502 144.455C144.608 144.629 144.743 144.746 144.907 144.807C145.074 144.864 145.249 144.892 145.434 144.892C145.573 144.892 145.686 144.885 145.775 144.871C145.864 144.853 145.935 144.839 145.988 144.828L146.244 145.957C146.158 145.989 146.04 146.021 145.887 146.053C145.734 146.089 145.541 146.107 145.306 146.107C144.951 146.107 144.603 146.03 144.262 145.877C143.925 145.725 143.644 145.492 143.421 145.18C143.2 144.867 143.09 144.473 143.09 143.997V135.858ZM151.328 146.17C150.54 146.17 149.86 145.996 149.288 145.648C148.72 145.297 148.281 144.807 147.972 144.178C147.667 143.546 147.514 142.811 147.514 141.973C147.514 141.135 147.667 140.396 147.972 139.757C148.281 139.114 148.711 138.614 149.261 138.255C149.815 137.893 150.462 137.712 151.2 137.712C151.626 137.712 152.047 137.783 152.463 137.925C152.878 138.067 153.256 138.298 153.597 138.617C153.938 138.933 154.21 139.352 154.412 139.874C154.615 140.396 154.716 141.039 154.716 141.803V142.335H148.409V141.249H153.437C153.437 140.787 153.345 140.375 153.16 140.013C152.979 139.651 152.72 139.365 152.383 139.155C152.049 138.946 151.655 138.841 151.2 138.841C150.699 138.841 150.266 138.965 149.9 139.214C149.538 139.459 149.259 139.778 149.064 140.173C148.869 140.567 148.771 140.989 148.771 141.44V142.165C148.771 142.783 148.878 143.306 149.091 143.736C149.307 144.162 149.608 144.487 149.991 144.711C150.375 144.931 150.82 145.041 151.328 145.041C151.658 145.041 151.957 144.995 152.223 144.903C152.493 144.807 152.725 144.665 152.921 144.477C153.116 144.285 153.267 144.047 153.373 143.763L154.588 144.104C154.46 144.516 154.245 144.878 153.943 145.19C153.642 145.499 153.269 145.741 152.825 145.915C152.381 146.085 151.882 146.17 151.328 146.17Z" fill="#2F5062"/>
</svg>
